<svg xmlns="http://www.w3.org/2000/svg" width="960" height="540" viewBox="0 0 960 540">
  <defs>
    <linearGradient id="sky" x1="0" y1="0" x2="0" y2="1">
      <stop offset="0%" stop-color="#0c4a6e"/>
      <stop offset="55%" stop-color="#0f172a"/>
      <stop offset="100%" stop-color="#020617"/>
    </linearGradient>
  </defs>
  <rect width="960" height="540" fill="url(#sky)"/>
  <path d="M0 340 C120 300 200 250 320 270 C420 288 480 230 580 250 C700 274 780 210 960 240 L960 540 L0 540 Z" fill="#1e293b"/>
  <path d="M0 400 C180 360 260 390 400 370 C560 346 640 410 960 360 L960 540 L0 540 Z" fill="#0f172a"/>
  <rect x="430" y="210" width="100" height="70" rx="8" fill="#020617" stroke="#67e8f9" stroke-opacity=".5"/>
  <rect x="160" y="390" width="48" height="18" rx="2" fill="#a5f3fc" fill-opacity=".35"/>
  <rect x="520" y="370" width="36" height="14" rx="2" fill="#e2e8f0" fill-opacity=".25"/>
  <rect x="700" y="400" width="42" height="16" rx="2" fill="#67e8f9" fill-opacity=".3"/>
  <text x="40" y="56" fill="#7dd3fc" font-family="Outfit, sans-serif" font-size="18" letter-spacing="4">UNREAL ù LANDSCAPE</text>
  <text x="40" y="500" fill="#e2e8f0" font-family="Outfit, sans-serif" font-size="28">Snowball Battleground</text>
</svg>
